<?xml version="1.0" encoding="UTF-8"?>
<svg width="24px" height="24px" viewBox="0 0 24 24" version="1.1" xmlns="http://www.w3.org/2000/svg">
    <path d="M22.7,19.3L19.3,22.7C18.9,23.1 18.3,23.1 17.9,22.7L13.2,18C13.1,17.9 13,17.7 13,17.6V16.6C11.3,17.5 9.3,18 7,18C3.1,18 0,14.9 0,11C0,7.1 3.1,4 7,4C10.9,4 14,7.1 14,11C14,13.3 13.5,15.3 12.6,17H13.6C13.7,17 13.9,17.1 14,17.2L18.7,21.9C19.1,22.3 19.1,22.9 18.7,23.3L15.3,26.7C14.9,27.1 14.3,27.1 13.9,26.7L9.2,22C9.1,21.9 9,21.7 9,21.6V20.6C7.3,21.5 5.3,22 3,22C-0.9,22 -4,18.9 -4,15C-4,11.1 -0.9,8 3,8C6.9,8 10,11.1 10,15C10,17.3 9.5,19.3 8.6,21H9.6C9.7,21 9.9,21.1 10,21.2L14.7,25.9C15.1,26.3 15.1,26.9 14.7,27.3L11.3,30.7C10.9,31.1 10.3,31.1 9.9,30.7L5.2,26C5.1,25.9 5,25.7 5,25.6V24.6C3.3,25.5 1.3,26 -1,26" fill="#FFFFFF"/>
</svg>